<?xml version="1.0" encoding="UTF-8"?>
<svg width="320px" height="260px" viewBox="0 0 320 260" version="1.1" xmlns="http://www.w3.org/2000/svg" xmlns:xlink="http://www.w3.org/1999/xlink">
    <title>twitter</title>
    <g id="HOME" stroke="none" stroke-width="1" fill="none" fill-rule="evenodd">
        <g id="Menu-logged" transform="translate(0.000000, -925.000000)" fill="#FFFFFF" fill-rule="nonzero">
            <g id="twitter" transform="translate(0.000000, 925.000000)">
                <path d="M320,30.78 C308.1,36 295.42,39.46 282.2,41.14 C295.8,33.02 306.18,20.26 311.06,4.88 C298.38,12.44 284.38,17.78 269.46,20.76 C257.42,7.94 240.26,0 221.54,0 C185.22,0 155.98,29.48 155.98,65.62 C155.98,70.82 156.42,75.82 157.5,80.58 C102.96,77.92 54.7,51.78 22.28,11.96 C16.62,21.78 13.3,33.02 13.3,45.12 C13.3,67.84 25,87.98 42.44,99.64 C31.9,99.44 21.56,96.38 12.8,91.56 C12.8,91.76 12.8,92.02 12.8,92.28 C12.8,124.16 35.54,150.64 65.36,156.74 C60.02,158.2 54.2,158.9 48.16,158.9 C43.96,158.9 39.72,158.66 35.74,157.78 C44.24,183.76 68.36,202.86 97.04,203.48 C74.72,220.94 46.38,231.46 15.7,231.46 C10.32,231.46 5.16,231.22 -3.55271368e-14,230.56 C29.06,249.3 63.5,260 100.64,260 C221.36,260 287.36,160 287.36,73.32 C287.36,70.42 287.26,67.62 287.12,64.84 C300.14,55.6 311.08,44.06 320,30.78 Z" id="Path"></path>
            </g>
        </g>
    </g>
</svg>