<?xml version="1.0" encoding="UTF-8"?>
<svg width="21px" height="21px" viewBox="0 0 21 21" version="1.1" xmlns="http://www.w3.org/2000/svg" xmlns:xlink="http://www.w3.org/1999/xlink">
    <title>basketball</title>
    <g id="HOME" stroke="none" stroke-width="1" fill="none" fill-rule="evenodd">
        <g id="Desktop-1280" transform="translate(-721.000000, -83.000000)" fill="#FFFFFF" fill-rule="nonzero">
            <g id="Header" transform="translate(-180.000000, -81.000000)">
                <g id="Group-25" transform="translate(180.000000, 81.000000)">
                    <g id="Group-8" transform="translate(40.000000, 74.000000)">
                        <g id="Group-3" transform="translate(681.000000, 7.000000)">
                            <g id="basketball" transform="translate(0.000000, 2.000000)">
                                <path d="M10.5,0 C4.7184375,0 0,4.71880664 0,10.5 C0,16.2815625 4.71880664,21 10.5,21 C16.2815625,21 21,16.2811934 21,10.5 C21,4.7184375 16.2811934,0 10.5,0 Z M3.08843555,4.93910156 C4.15385742,6.36841406 4.78422656,8.08651758 4.9016543,9.88476562 L1.25138672,9.88476562 C1.37308008,8.03709375 2.03806641,6.33551953 3.08843555,4.93910156 Z M1.25138672,11.1152344 L4.9016543,11.1152344 C4.78434961,12.9146719 4.15410352,14.631627 3.08839453,16.0608574 C2.03806641,14.6644395 1.37308008,12.9629062 1.25138672,11.1152344 Z M9.88476562,19.7486133 C7.55417578,19.5951328 5.45630859,18.5767559 3.90981445,17.0118457 C5.23400391,15.3297129 6.00965039,13.2723691 6.13400977,11.1152344 L9.88476562,11.1152344 L9.88476562,19.7486133 Z M9.88476562,9.88476562 L6.13396875,9.88476562 C6.00948633,7.72906641 5.23375781,5.67008203 3.90997852,3.98799023 C5.45643164,2.42316211 7.55425781,1.40486719 9.88476562,1.25138672 L9.88476562,9.88476562 Z M19.7486133,9.88476562 L16.0983457,9.88476562 C16.2156504,8.08532813 16.8458965,6.36837305 17.9116055,4.93914258 C18.9619336,6.33556055 19.6269199,8.03709375 19.7486133,9.88476562 Z M11.1152344,1.25138672 C13.4458242,1.40486719 15.5436914,2.42324414 17.0901855,3.9881543 C15.7659961,5.67028711 14.9903496,7.72758984 14.8659902,9.88476562 L11.1152344,9.88476562 L11.1152344,1.25138672 Z M11.1152344,19.7486133 L11.1152344,11.1152344 L14.8660312,11.1152344 C14.9906367,13.269457 15.7666523,15.329959 17.0900215,17.0119688 C15.5435684,18.5768379 13.4457422,19.5951328 11.1152344,19.7486133 Z M17.9113594,16.0611445 C16.8462246,14.63175 16.2158555,12.912334 16.0983047,11.1152344 L19.7486133,11.1152344 C19.6269199,12.9630293 18.9618516,14.6646855 17.9113594,16.0611445 Z" id="Shape"></path>
                            </g>
                        </g>
                    </g>
                </g>
            </g>
        </g>
    </g>
</svg>