<?xml version="1.0" encoding="UTF-8"?>
<svg width="16px" height="16px" viewBox="0 0 16 16" version="1.1" xmlns="http://www.w3.org/2000/svg" xmlns:xlink="http://www.w3.org/1999/xlink">
    <title>casino-chip</title>
    <g id="Components" stroke="none" stroke-width="1" fill="none" fill-rule="evenodd">
        <g id="Nav-bar-Mobile" transform="translate(-29.000000, -60.000000)" fill="#FFFFFF" fill-rule="nonzero">
            <g id="Group-8" transform="translate(29.000000, 53.000000)">
                <g id="Group-7" transform="translate(0.000000, 4.000000)">
                    <g id="casino-chip" transform="translate(0.000000, 3.000000)">
                        <path d="M13.656875,2.343125 C12.1458437,0.83215625 10.136875,0 8,0 C5.863125,0 3.85415625,0.83215625 2.343125,2.343125 C0.83215625,3.85415625 0,5.863125 0,8 C0,10.136875 0.83215625,12.1458438 2.343125,13.656875 C3.85415625,15.1678437 5.863125,16 8,16 C10.136875,16 12.1458437,15.1678437 13.656875,13.656875 C15.1678437,12.1458437 16,10.136875 16,8 C16,5.863125 15.1678437,3.85415625 13.656875,2.343125 Z M15.0468125,7.53125 L14.1237188,7.53125 C14.0335,6.22340625 13.5252813,4.99671875 12.661,4.001875 L13.3142813,3.34859375 C14.3420625,4.51946875 14.945625,5.97659375 15.0468125,7.53125 L15.0468125,7.53125 Z M4.00528125,12.657625 C4.9985625,13.5040937 6.2235,14.0114687 7.53125,14.1175 L7.53125,15.0468125 C5.97659375,14.9455938 4.51946875,14.3420312 3.348625,13.3142813 L4.00528125,12.657625 Z M8.46875,14.123625 C9.7765,14.033375 11.0033437,13.5252813 11.998125,12.6610625 L12.651375,13.3143125 C11.4805313,14.3420625 10.0234062,14.945625 8.46875,15.0468125 L8.46875,14.123625 Z M11.6669688,11.688 C10.6962813,12.6646875 9.41196875,13.2009375 8.046,13.2009375 C8.03203125,13.2009375 8.0178125,13.2009375 8.00378125,13.2007812 C5.11103125,13.1774063 2.77628125,10.8460312 2.79921875,8.00378125 C2.8105,6.6069375 3.35521875,5.29584375 4.33303125,4.312 C5.30371875,3.3353125 6.58803125,2.7990625 7.954,2.7990625 C7.968,2.7990625 7.9821875,2.7990625 7.99621875,2.79921875 C9.3930625,2.8105 10.7041563,3.35521875 11.688,4.33303125 C12.6746875,5.31365625 13.2119375,6.61459375 13.2007813,7.99621875 C13.1894688,9.3930625 12.6447813,10.7041563 11.6669688,11.688 Z M11.9947188,3.342375 C11.0014375,2.495875 9.7765,1.98853125 8.46875,1.8825 L8.46875,0.9531875 C10.0234062,1.05440625 11.4805313,1.65796875 12.651375,2.68571875 L11.9947188,3.342375 Z M7.53125,1.876375 C6.2235,1.966625 4.9966875,2.47471875 4.001875,3.33896875 L3.348625,2.68571875 C4.51946875,1.65796875 5.97659375,1.054375 7.53125,0.9531875 L7.53125,1.876375 Z M2.68571875,3.348625 L3.342375,4.00528125 C2.495875,4.9985625 1.98853125,6.2235 1.8825,7.53125 L0.9531875,7.53125 C1.054375,5.97659375 1.6579375,4.51946875 2.68571875,3.348625 Z M0.9531875,8.46875 L1.87628125,8.46875 C1.9665,9.77659375 2.47471875,11.0032812 3.339,11.998125 L2.68571875,12.6514062 C1.6579375,11.4805312 1.054375,10.0234062 0.9531875,8.46875 L0.9531875,8.46875 Z M13.3142813,12.651375 L12.657625,11.9947187 C13.504125,11.0014062 14.0114688,9.7765 14.1175,8.46875 L15.0468125,8.46875 C14.945625,10.0234062 14.3420625,11.4805312 13.3142813,12.651375 Z" id="Shape"></path>
                        <path d="M11.1454592,4.998125 C10.3310842,4.1705 9.24314666,3.70953125 8.08208416,3.70015625 C8.07008416,3.7 8.05839666,3.7 8.04639666,3.7 C5.66586541,3.7 3.71939666,5.62696875 3.70014666,8.01184375 C3.69074041,9.17290625 4.13408416,10.2681563 4.94842791,11.0958125 C5.76277166,11.9234688 6.85074041,12.3844063 8.01180291,12.3937813 C8.02386541,12.3939375 8.03589666,12.3939375 8.04789666,12.3939375 C9.19558416,12.3939375 10.2766779,11.9514063 11.0957404,11.1455 C11.9233654,10.331125 12.3843342,9.2431875 12.3937092,8.082125 C12.4031467,6.921 11.9598342,5.82575 11.1454592,4.998125 L11.1454592,4.998125 Z M8.04739666,11.4564063 C8.03811541,11.4564063 8.02870916,11.4564063 8.01939666,11.4563125 C6.13949041,11.441125 4.62242791,9.89934375 4.63758416,8.01940625 C4.65270916,6.1488125 6.17924041,4.6375 8.04652166,4.6375 C8.05580291,4.6375 8.06520916,4.6375 8.07452166,4.63759375 C9.95442791,4.65278125 11.4714904,6.1945625 11.4563342,8.0745 C11.4411779,9.94509375 9.91467791,11.4564063 8.04739666,11.4564063 L8.04739666,11.4564063 Z" id="Shape"></path>
                        <path d="M7.93509375,7.3038125 C7.93596875,7.19375 8.037625,7.1028125 8.3540625,7.105375 C8.6338125,7.107625 8.93128125,7.18803125 9.24640625,7.35109375 L9.578375,6.5695 C9.31815625,6.420625 8.98865625,6.33078125 8.6495625,6.2959375 L8.6535,5.80521875 L8.006875,5.8 L8.00284375,6.29990625 C7.24984375,6.3993125 6.8703125,6.83190625 6.866125,7.35015625 C6.8564375,8.547125 8.633875,8.23584375 8.630625,8.6394375 C8.62975,8.7495 8.51915625,8.8128125 8.211875,8.81034375 C7.85875,8.80746875 7.45609375,8.68959375 7.154875,8.50828125 L6.8,9.29425 C7.07378125,9.4661875 7.517625,9.59359375 7.97603125,9.6248125 L7.97209375,10.1109375 L8.61871875,10.1161562 L8.62284375,9.607125 C9.33465625,9.4890625 9.695875,9.0608125 9.699875,8.56553125 C9.709375,7.38234375 7.93196875,7.68903125 7.93509375,7.3038125 L7.93509375,7.3038125 Z" id="Path"></path>
                    </g>
                </g>
            </g>
        </g>
    </g>
</svg>