<?xml version="1.0" encoding="UTF-8"?>
<svg width="21px" height="14px" viewBox="0 0 21 14" version="1.1" xmlns="http://www.w3.org/2000/svg" xmlns:xlink="http://www.w3.org/1999/xlink">
    <title>chile</title>
    <g id="Components" stroke="none" stroke-width="1" fill="none" fill-rule="evenodd">
        <g id="Header-/-Normal" transform="translate(-826.000000, -33.000000)" fill-rule="nonzero">
            <g id="Field-Copy-2" transform="translate(811.000000, 19.000000)">
                <g id="Path" transform="translate(15.000000, 14.000000)">
                    <path d="M21.000041,7 L0,7 L0,0.379291667 C0,0.176166667 0.162134766,0.0114583333 0.362085937,0.0114583333 L20.6379551,0.0114583333 C20.8379062,0.0114583333 21.000041,0.176166667 21.000041,0.379291667 L21.000041,7 L21.000041,7 Z" fill="#F5F5F5"></path>
                    <path d="M0.724130859,7 L0.724130859,6.63216667 L0,6.63216667 L0,7 L0,7.36783333 L0,13.6207083 C0,13.8238333 0.162134766,13.9885417 0.362085937,13.9885417 L20.6379551,13.9885417 C20.8379062,13.9885417 21.000041,13.8238333 21.000041,13.6207083 L21.000041,7 L0.724130859,7 Z" fill="#FF4B55"></path>
                    <path d="M6.51725977,7 L0.362085938,7 C0.162134766,7 0,6.83529167 0,6.63216667 L0,0.379291667 C0,0.176166667 0.162134766,0.0114583333 0.362085938,0.0114583333 L6.51725977,0.0114583333 C6.71721094,0.0114583333 6.8793457,0.176166667 6.8793457,0.379291667 L6.8793457,6.63216667 C6.8793457,6.83529167 6.71721094,7 6.51725977,7 Z" fill="#41479B"></path>
                    <path d="M3.57910547,1.93695833 L3.92429297,2.988375 L5.01530859,2.99695833 C5.15656641,2.99804167 5.21513672,3.18120833 5.10148242,3.26641667 L4.22383008,3.92479167 L4.55289844,4.98154167 C4.59547266,5.118375 4.44215625,5.2315 4.32723047,5.14808333 L3.43965234,4.503625 L2.5520332,5.148125 C2.43710742,5.23158333 2.28379102,5.118375 2.32636523,4.98158333 L2.65543359,3.92483333 L1.77778125,3.26645833 C1.66412695,3.18120833 1.72269727,2.99808333 1.86395508,2.997 L2.9549707,2.98841667 L3.3001582,1.937 C3.34486523,1.80083333 3.53443945,1.80083333 3.57910547,1.93695833 Z" fill="#F5F5F5"></path>
                </g>
            </g>
        </g>
    </g>
</svg>