<?xml version="1.0" encoding="UTF-8"?>
<svg width="42px" height="43px" viewBox="0 0 42 43" version="1.1" xmlns="http://www.w3.org/2000/svg" xmlns:xlink="http://www.w3.org/1999/xlink">
    <title>right chevron  copy</title>
    <g id="HOME" stroke="none" stroke-width="1" fill="none" fill-rule="evenodd">
        <g id="Home" transform="translate(-9.000000, -3087.000000)">
            <g id="LIVE-CASINO-Copy" transform="translate(0.000000, 2992.000000)">
                <g id="Group" transform="translate(10.000000, 96.000000)">
                    <g id="right-chevron--copy" transform="translate(20.000000, 20.500000) rotate(-180.000000) translate(-20.000000, -20.500000) ">
                        <ellipse id="Oval" stroke="#FFA800" stroke-width="2" fill="#FFA800" cx="20" cy="20.5" rx="20" ry="20.5"></ellipse>
                        <path d="M24.6047208,20.4090442 L17.9380446,13.3274238 C17.6777393,13.0508486 17.2555845,13.0508486 16.9952505,13.3274846 C16.7349451,13.6040598 16.7349451,14.0524408 16.9953078,14.3289855 L23.1905583,20.9098859 L16.9952219,27.4910906 C16.7349165,27.7676657 16.7349165,28.2160467 16.9952792,28.4925915 C17.1254175,28.6308638 17.2960325,28.7 17.4666476,28.7 C17.6372626,28.7 17.8079063,28.6308942 17.9380733,28.492561 L24.6047208,21.4105755 C24.7297889,21.2777805 24.8,21.0976673 24.8,20.9098555 C24.8,20.7220132 24.7297889,20.5418696 24.6047208,20.4090442 Z" id="Path" stroke="#102234" fill="#102234" fill-rule="nonzero"></path>
                    </g>
                </g>
            </g>
        </g>
    </g>
</svg>