<?xml version="1.0" encoding="UTF-8"?>
<svg width="15px" height="8px" viewBox="0 0 15 8" version="1.1" xmlns="http://www.w3.org/2000/svg" xmlns:xlink="http://www.w3.org/1999/xlink">
    <title>Path</title>
    <g id="Components" stroke="none" stroke-width="1" fill="none" fill-rule="evenodd">
        <g id="Header-/-Normal" transform="translate(-946.000000, -36.000000)" fill="#FFFFFF" fill-rule="nonzero">
            <g id="Field-Copy-2" transform="translate(811.000000, 19.000000)">
                <path d="M146.304721,20.5176933 L139.638045,13.699702 C139.377739,13.4334229 138.955585,13.4334229 138.695251,13.6997605 C138.434945,13.9660396 138.434945,14.3977286 138.695308,14.6639784 L144.890558,20.9998901 L138.695222,27.3360949 C138.434916,27.6023739 138.434916,28.034063 138.695279,28.3003127 C138.825418,28.4334376 138.996033,28.5 139.166648,28.5 C139.337263,28.5 139.507906,28.4334669 139.638073,28.3002834 L146.304721,21.4819404 C146.429789,21.354089 146.5,21.180681 146.5,20.9998608 C146.5,20.8190114 146.429789,20.6455741 146.304721,20.5176933 Z" id="Path" transform="translate(142.500000, 21.000000) rotate(-270.000000) translate(-142.500000, -21.000000) "></path>
            </g>
        </g>
    </g>
</svg>