<?xml version="1.0" encoding="UTF-8"?>
<svg width="16px" height="9px" viewBox="0 0 16 9" version="1.1" xmlns="http://www.w3.org/2000/svg" xmlns:xlink="http://www.w3.org/1999/xlink">
    <title>Path</title>
    <g id="Components" stroke="none" stroke-width="1" fill="none" fill-rule="evenodd">
        <g id="Header-/-Loged-expanded" transform="translate(-1215.000000, -34.000000)" fill="#333333" fill-rule="nonzero">
            <g id="Group" transform="translate(913.000000, 18.000000)">
                <path d="M313.804721,20.0176933 L307.138045,13.199702 C306.877739,12.9334229 306.455585,12.9334229 306.195251,13.1997605 C305.934945,13.4660396 305.934945,13.8977286 306.195308,14.1639784 L312.390558,20.4998901 L306.195222,26.8360949 C305.934916,27.1023739 305.934916,27.534063 306.195279,27.8003127 C306.325418,27.9334376 306.496033,28 306.666648,28 C306.837263,28 307.007906,27.9334669 307.138073,27.8002834 L313.804721,20.9819404 C313.929789,20.854089 314,20.680681 314,20.4998608 C314,20.3190114 313.929789,20.1455741 313.804721,20.0176933 Z" id="Path" transform="translate(310.000000, 20.500000) rotate(-270.000000) translate(-310.000000, -20.500000) "></path>
            </g>
        </g>
    </g>
</svg>