<svg id="Layer_1" data-name="Layer 1" xmlns="http://www.w3.org/2000/svg" viewBox="0 0 25 15"><defs><style>.cls-1{fill:#020202;}</style></defs><path class="cls-1" d="M19.53,0a.47.47,0,0,0-.33.14L5.14,14.2a.45.45,0,0,0,0,.66.46.46,0,0,0,.66,0l2.49-2.49a10.47,10.47,0,0,0,4.21.94c5.35,0,9.68-4.65,9.68-5.81,0-.75-1.83-3-4.58-4.44L19.86.8a.45.45,0,0,0,0-.66A.47.47,0,0,0,19.53,0Zm-7,11A3.49,3.49,0,0,0,16,7.5a3.43,3.43,0,0,0-.73-2.1L16.9,3.76a12.49,12.49,0,0,1,1.74,1,8.89,8.89,0,0,1,2.68,2.7,8.89,8.89,0,0,1-2.68,2.7,10.83,10.83,0,0,1-6.14,2.14A9.68,9.68,0,0,1,9,11.65l1.39-1.39a3.43,3.43,0,0,0,2.1.73Zm0-.67a2.76,2.76,0,0,1-1.62-.54l3.9-3.9a2.76,2.76,0,0,1,.54,1.62,2.82,2.82,0,0,1-2.82,2.82Z"/><path class="cls-1" d="M12.5,1.69c-5.35,0-9.68,4.65-9.68,5.81,0,.68,1.49,2.55,3.79,4l.69-.69c-.34-.2-.66-.4-.94-.6A8.89,8.89,0,0,1,3.68,7.5,8.89,8.89,0,0,1,6.36,4.8,10.83,10.83,0,0,1,12.5,2.66,9.15,9.15,0,0,1,15.06,3l.76-.76a10.07,10.07,0,0,0-3.32-.59Z"/><path class="cls-1" d="M12.5,4A3.48,3.48,0,0,0,9.28,8.83l.53-.54a2.56,2.56,0,0,1-.13-.79A2.82,2.82,0,0,1,12.5,4.68a2.56,2.56,0,0,1,.79.13l.54-.53A3.47,3.47,0,0,0,12.5,4Z"/></svg>