<svg id="Layer_1" data-name="Layer 1" xmlns="http://www.w3.org/2000/svg" viewBox="0 0 25 15"><defs><style>.cls-1{fill:#020202;}</style></defs><path class="cls-1" d="M12.5,1.69c-5.35,0-9.68,4.65-9.68,5.81s4.33,5.81,9.68,5.81,9.68-4.65,9.68-5.81S17.85,1.69,12.5,1.69Zm0,10.65A10.83,10.83,0,0,1,6.36,10.2,8.89,8.89,0,0,1,3.68,7.5,8.89,8.89,0,0,1,6.36,4.8,10.83,10.83,0,0,1,12.5,2.66,10.83,10.83,0,0,1,18.64,4.8a8.89,8.89,0,0,1,2.68,2.7,8.89,8.89,0,0,1-2.68,2.7,10.83,10.83,0,0,1-6.14,2.14Z"/><path class="cls-1" d="M12.5,4.76A2.74,2.74,0,1,1,9.76,7.5,2.74,2.74,0,0,1,12.5,4.76m0-.75A3.49,3.49,0,1,0,16,7.5,3.49,3.49,0,0,0,12.5,4Z"/></svg>