<?xml version="1.0" encoding="UTF-8"?>
<svg width="15px" height="15px" viewBox="0 0 15 15" version="1.1" xmlns="http://www.w3.org/2000/svg" xmlns:xlink="http://www.w3.org/1999/xlink">
    <title>Shape</title>
    <g id="Components" stroke="none" stroke-width="1" fill="none" fill-rule="evenodd">
        <g id="Nav-bar-Mobile" transform="translate(-151.000000, -60.000000)" fill="#FFFFFF" fill-rule="nonzero">
            <g id="Group-8" transform="translate(29.000000, 53.000000)">
                <g id="Group-2-Copy-2" transform="translate(121.576909, 4.000000)">
                    <g id="Shape" transform="translate(0.423091, 3.000000)">
                        <path d="M14.241162,4.19873611 C12.432434,0.488961887 7.90917844,-1.05211008 4.19703504,0.759152112 C0.488084985,2.56877305 -1.05131722,7.06526126 0.75872915,10.7777904 C2.56631459,14.4852493 7.08924791,16.0585894 10.8028855,14.2467117 C14.5112496,12.4372959 16.0516772,7.91232037 14.241162,4.19873611 Z M13.4514951,4.58404806 C13.7098053,5.11381902 13.8908598,5.66137993 13.9999612,6.2139525 L12.3461548,7.85282518 L10.2287847,7.50801684 L9.16404979,5.26847721 L10.1302594,3.39581481 L12.4022583,3.03608872 C12.8145527,3.48877971 13.1699819,4.00659302 13.4514951,4.58404806 Z M9.39408854,7.7985468 L7.77658097,9.33665866 L5.76063643,8.328435 L6.07771608,6.08529049 L8.42166798,5.75317251 L9.39408854,7.7985468 Z M11.5808922,2.27622084 L10.0942536,2.51159319 L9.42323889,1.16099376 C10.2007769,1.39627819 10.9339302,1.77285637 11.5808922,2.27622084 Z M4.72455385,1.48209194 C5.85333162,0.963545933 7.09235338,0.771520078 8.3261017,0.927438507 L9.35087571,2.99001659 L8.38018366,4.87135414 L5.85327303,5.22938037 L4.37551136,3.7375165 L4.72455385,1.48209194 Z M3.75031689,2.03299396 L3.52024884,3.51943585 L2.03908874,3.74440387 C2.49017212,3.08482789 3.06506391,2.50127679 3.75031689,2.03299396 Z M1.48816175,4.71707696 L3.76619578,4.3710377 L5.22456294,5.84332384 L4.88047161,8.27779082 L2.93762268,9.22575728 L0.911775817,8.16099854 C0.791453715,6.9724429 0.998172185,5.78230464 1.48816175,4.71707696 Z M2.17678387,11.4301273 C1.94018263,11.1094981 1.72906963,10.7633123 1.54833745,10.3925371 C1.3683377,10.0232859 1.22616016,9.64533026 1.11969546,9.26303703 L2.44098273,9.95754812 L2.17678387,11.4301273 Z M2.9180231,12.2739626 L3.32316903,10.0154607 L5.26985585,9.06561851 L7.46934505,10.1656054 L7.8142567,12.3828124 L6.2154405,13.9948097 C4.98810818,13.747421 3.83800232,13.1564843 2.9180231,12.2739626 Z M7.32617142,14.1227683 L8.36837704,13.0719894 L9.70396117,13.7546015 C8.92405011,14.0284552 8.11885589,14.1468301 7.32617142,14.1227683 Z M10.7316649,13.2929423 L8.68205825,12.2454166 L8.33550599,10.0177467 L10.0661872,8.37195734 L12.2402175,8.72596838 L13.2810462,10.7437932 C12.7008223,11.7855452 11.8361848,12.6792919 10.7316649,13.2929423 Z M13.742442,9.72167754 L13.0544644,8.38793019 L14.1231544,7.3288865 C14.1437794,8.14813234 14.0120315,8.95943571 13.742442,9.72167754 Z"></path>
                    </g>
                </g>
            </g>
        </g>
    </g>
</svg>