<?xml version="1.0" encoding="UTF-8"?>
<svg width="20px" height="21px" viewBox="0 0 20 21" version="1.1" xmlns="http://www.w3.org/2000/svg" xmlns:xlink="http://www.w3.org/1999/xlink">
    <title>fullscreen</title>
    <g id="CASINO" stroke="none" stroke-width="1" fill="none" fill-rule="evenodd">
        <g id="JUEGO" transform="translate(-911.000000, -186.000000)" fill="#FFA800" fill-rule="nonzero">
            <g id="fullscreen" transform="translate(911.000000, 186.000000)">
                <path d="M20,1.13501998 C20,0.780665108 19.7181596,0.5 19.3623208,0.5 L13.6325905,0.5 C13.2703908,0.5 13.0006361,0.784518513 13,1.14520775 C13,1.50526355 13.2703908,1.77009275 13.6325905,1.77009275 L18.7245886,1.77009275 L18.7143582,6.86498002 C18.7143582,7.22566926 18.9898377,7.5 19.3520374,7.5 C19.714237,7.49936656 19.9897166,7.22566926 19.9897166,6.86498002 L20,1.14457432 C20,1.14267401 19.9993109,1.14140713 19.9993109,1.14014026 C19.9993639,1.13818717 20,1.13692029 20,1.13501998 Z" id="Path"></path>
                <path d="M6.36462554,0.5 L0.655129221,0.5 C0.653227693,0.5 0.651960008,0.500634762 0.65005848,0.500634762 C0.648790794,0.500634762 0.646889266,0.5 0.645621581,0.5 C0.291039427,0.5 0.0101414827,0.781252598 0.0101414827,1.13634921 L0,6.86872889 C0,7.23017312 0.284701,7.5 0.645621581,7.5 C1.00590832,7.5 1.27090738,7.23017312 1.27090738,6.86872889 L1.28104886,1.77269842 L6.36457272,1.77269842 C6.7254933,1.77269842 7,1.49779345 7,1.13634921 C6.99941898,0.774904975 6.72491228,0.5 6.36462554,0.5 Z" id="Path"></path>
                <path d="M6.36745775,19.227292 L1.27542103,19.227292 L1.27542103,14.136354 C1.27542103,13.7749071 0.99993942,13.5 0.637737021,13.5 C0.275534622,13.5 0,13.7748542 0,14.136354 L0,19.8541245 C0,19.8560288 0.000636093778,19.8572983 0.000636093778,19.8585678 C0.000636093778,19.8604721 0,19.8617417 0,19.863646 C0,20.2187453 0.281842552,20.5 0.637684013,20.5 L6.36740474,20.5 C6.72960714,20.5 6.99936391,20.2148838 7,19.8534368 C7,19.4926775 6.72966014,19.227292 6.36745775,19.227292 Z" id="Path"></path>
                <path d="M19.3534897,13.5 C18.9920427,13.5 18.7266572,13.7703929 18.727292,14.1325953 L18.727292,19.224632 L13.636354,19.224632 C13.2749071,19.224632 13,19.5001136 13,19.862316 C13,20.2245184 13.2749071,20.5 13.636354,20.5 L19.3541245,20.5 C19.3560288,20.5 19.3572983,20.4993639 19.3585678,20.4993639 C19.3604721,20.4987278 19.3617417,20.5 19.363646,20.5 C19.7187453,20.5 20,20.2181574 20,19.862316 L20,14.1325953 C20,13.7703929 19.7149367,13.5 19.3534897,13.5 Z" id="Path"></path>
            </g>
        </g>
    </g>
</svg>