<?xml version="1.0" encoding="UTF-8"?>
<svg width="25px" height="25px" viewBox="0 0 25 25" version="1.1" xmlns="http://www.w3.org/2000/svg" xmlns:xlink="http://www.w3.org/1999/xlink">
    <title>icon-deposito</title>
    <defs>
        <filter id="filter-1">
            <feColorMatrix in="SourceGraphic" type="matrix" values="0 0 0 0 1.000000 0 0 0 0 1.000000 0 0 0 0 1.000000 0 0 0 1.000000 0"></feColorMatrix>
        </filter>
    </defs>
    <g id="MY-ACCOUNT" stroke="none" stroke-width="1" fill="none" fill-rule="evenodd">
        <g id="Deposito-3" transform="translate(-227.000000, -425.000000)">
            <g id="icon-deposito" transform="translate(15.000000, 355.000000)" filter="url(#filter-1)">
                <g transform="translate(223.667262, 82.667262) rotate(-225.000000) translate(-223.667262, -82.667262) translate(214.667262, 75.167262)">
                    <path d="M17.8047208,7.01769334 L11.1380446,0.199701954 C10.8777393,-0.0665770828 10.4555845,-0.0665770828 10.1952505,0.199760548 C9.93494514,0.466039585 9.93494514,0.897728616 10.1953078,1.16397836 L16.3905583,7.49989014 L10.1952219,13.8360949 C9.9349165,14.1023739 9.9349165,14.534063 10.1952792,14.8003127 C10.3254175,14.9334376 10.4960325,15 10.6666476,15 C10.8372626,15 11.0079063,14.9334669 11.1380733,14.8002834 L17.8047208,7.98194045 C17.9297889,7.85408901 18,7.68068098 18,7.49986084 C18,7.31901141 17.9297889,7.14557408 17.8047208,7.01769334 Z" id="Path" fill="#BDDD9D" fill-rule="nonzero"></path>
                    <path d="M16.5,6.75 C16.9142136,6.75 17.25,7.08578644 17.25,7.5 C17.25,7.87969577 16.9678461,8.19349096 16.6017706,8.24315338 L16.5,8.25 L0.5,8.25 C0.0857864376,8.25 -0.25,7.91421356 -0.25,7.5 C-0.25,7.12030423 0.0321538816,6.80650904 0.398229443,6.75684662 L0.5,6.75 L16.5,6.75 Z" id="Line-5" fill="#BDDD9D" fill-rule="nonzero"></path>
                </g>
            </g>
        </g>
    </g>
</svg>