<?xml version="1.0" encoding="UTF-8"?>
<svg width="25px" height="25px" viewBox="0 0 25 25" version="1.1" xmlns="http://www.w3.org/2000/svg" xmlns:xlink="http://www.w3.org/1999/xlink">
    <title>icon-retiro</title>
    <defs>
        <filter id="filter-1">
            <feColorMatrix in="SourceGraphic" type="matrix" values="0 0 0 0 1.000000 0 0 0 0 1.000000 0 0 0 0 1.000000 0 0 0 1.000000 0"></feColorMatrix>
        </filter>
    </defs>
    <g id="MY-ACCOUNT" stroke="none" stroke-width="1" fill="none" fill-rule="evenodd">
        <g id="Retiro-3" transform="translate(-216.000000, -426.000000)">
            <g id="icon-retiro" transform="translate(15.000000, 355.000000)" filter="url(#filter-1)">
                <g transform="translate(213.313708, 83.020815) rotate(-45.000000) translate(-213.313708, -83.020815) translate(203.813708, 75.520815)">
                    <path d="M18.8047208,7.01769334 L12.1380446,0.199701954 C11.8777393,-0.0665770828 11.4555845,-0.0665770828 11.1952505,0.199760548 C10.9349451,0.466039585 10.9349451,0.897728616 11.1953078,1.16397836 L17.3905583,7.49989014 L11.1952219,13.8360949 C10.9349165,14.1023739 10.9349165,14.534063 11.1952792,14.8003127 C11.3254175,14.9334376 11.4960325,15 11.6666476,15 C11.8372626,15 12.0079063,14.9334669 12.1380733,14.8002834 L18.8047208,7.98194045 C18.9297889,7.85408901 19,7.68068098 19,7.49986084 C19,7.31901141 18.9297889,7.14557408 18.8047208,7.01769334 Z" id="Path" fill="#BDDD9D" fill-rule="nonzero"></path>
                    <path d="M17.5,6.75 C17.9142136,6.75 18.25,7.08578644 18.25,7.5 C18.25,7.87969577 17.9678461,8.19349096 17.6017706,8.24315338 L17.5,8.25 L1.5,8.25 C1.08578644,8.25 0.75,7.91421356 0.75,7.5 C0.75,7.12030423 1.03215388,6.80650904 1.39822944,6.75684662 L1.5,6.75 L17.5,6.75 Z" id="Line-5" fill="#BDDD9D" fill-rule="nonzero"></path>
                </g>
            </g>
        </g>
    </g>
</svg>