<?xml version="1.0" encoding="UTF-8"?>
<svg width="22px" height="17px" viewBox="0 0 22 17" version="1.1" xmlns="http://www.w3.org/2000/svg" xmlns:xlink="http://www.w3.org/1999/xlink">
    <title>profit (1)</title>
    <g id="HOME" stroke="none" stroke-width="1" fill="none" fill-rule="evenodd">
        <g id="Mobile" transform="translate(-66.000000, -978.000000)" fill-rule="nonzero">
            <g id="Group-15-Copy" transform="translate(10.000000, 823.000000)">
                <g id="Group-10-Copy-2" transform="translate(43.000000, 153.000000)">
                    <g id="Path" transform="translate(13.000000, 2.000000)">
                        <path d="M13.7878572,6.40915053 L15.6797681,3.74105249 C14.1361039,1.48506739 11.5279166,0 8.57665443,0 C3.84752351,0 0,3.81315517 0,8.5 C0,13.1868448 3.84752351,17 8.57661133,17 C11.4977467,17 14.0822722,15.5452174 15.6315394,13.3284873 L16,7.41679397 L14.3160458,7.41679397 C13.7932015,7.41679397 13.4878822,6.83198488 13.7878572,6.40915053 Z" fill="#FFA800"></path>
                        <path d="M9.51847233,12.4919168 C9.51847233,12.4919168 9.52829909,12.4914897 9.22229016,12.4914897 L9.22229016,13.4778611 C9.22229016,13.831113 8.93343498,14.1177724 8.57656823,14.1177724 C8.22013248,14.1177724 7.93088939,13.8310703 7.93088939,13.4778611 L7.93088939,12.4914897 L7.5296729,12.4914897 C6.730731,12.4859368 5.97225986,12.1250389 5.4479502,11.5013166 C5.2197796,11.2299919 5.25680237,10.8263792 5.53104671,10.6002895 C5.79404198,10.3831271 6.18017353,10.4083289 6.41222312,10.6510347 C6.42170508,10.6608591 6.43118705,10.6714951 6.44019492,10.6821738 C6.71999914,11.0153497 7.11992264,11.2082073 7.53747397,11.2116245 L9.50558547,11.2116245 C9.50989546,11.2120516 9.51420544,11.2120516 9.51851543,11.2120516 C10.0956655,11.2120516 10.5636868,10.748809 10.5636868,10.1757892 C10.5636868,9.60456345 10.0944587,9.13995397 9.51808443,9.13995397 C9.09428361,9.13995397 8.08622125,9.13995397 7.63522443,9.13995397 C6.34684065,9.13995397 5.29865232,8.10112868 5.29865232,6.8242535 C5.29865232,5.53819462 6.35110753,4.50146236 7.64987838,4.50855302 L7.93097559,4.50855302 L7.93097559,3.52222429 C7.93097559,3.16897243 8.22026178,2.88227032 8.57665443,2.88227032 C8.93352118,2.88227032 9.22237636,3.16897243 9.22237636,3.52222429 L9.22237636,4.50855302 L9.45955483,4.50855302 C10.3833139,4.51496025 11.2373805,4.98721569 11.7436313,5.77180216 L11.7535443,5.7871368 C11.945511,6.08494477 11.8572856,6.48039891 11.5568366,6.67069359 C11.2675504,6.8535986 10.8635755,6.78909917 10.6554463,6.46079279 C10.3902961,6.05038845 9.92925699,5.79226258 9.45188306,5.78841824 L7.64780958,5.78841824 C7.6434996,5.78841824 7.63918962,5.7879911 7.63531063,5.7879911 C7.05760025,5.7879911 6.59013929,6.25123371 6.59013929,6.8242535 C6.59013929,7.39547926 7.05889325,7.86008875 7.63531063,7.86008875 L9.51817063,7.86008875 C10.8065544,7.86008875 11.8551737,8.89891404 11.8551737,10.1757892 C11.8550444,11.451383 10.8136659,12.4919168 9.51847233,12.4919168 L9.51847233,12.4919168 Z" fill="#333333"></path>
                        <path d="M20.9458311,6.42085863 C20.599596,6.42085863 20.3226642,6.73749494 20.3437653,7.11432047 L20.8310637,15.6529535 C20.8525272,16.0286894 20.576723,16.3461538 20.2289174,16.3461538 L17.7708813,16.3461538 C17.4229548,16.3461538 17.1471103,16.0283844 17.1685336,15.6525177 C17.3900548,11.7654529 17.0942771,16.9588985 17.6558723,7.11427689 C17.6769734,6.73718985 17.4002832,6.42081504 17.0537662,6.42081504 L16,6.42081504 C16.2312261,6.06469181 18.2413874,2.96884732 18.8353994,2.05406694 C18.9155755,1.93055045 19.0845453,1.93076837 19.1647214,2.05428486 L22,6.42085863 L20.9458311,6.42085863 Z" fill="#377E14"></path>
                    </g>
                </g>
            </g>
        </g>
    </g>
</svg>