<?xml version="1.0" encoding="UTF-8"?>
<svg width="21px" height="16px" viewBox="0 0 21 16" version="1.1" xmlns="http://www.w3.org/2000/svg" xmlns:xlink="http://www.w3.org/1999/xlink">
    <title>soccer (1)</title>
    <g id="HOME" stroke="none" stroke-width="1" fill="none" fill-rule="evenodd">
        <g id="Mobile" transform="translate(-215.000000, -568.000000)" fill="#FFFFFF" fill-rule="nonzero">
            <g id="Group-15" transform="translate(10.000000, 562.000000)">
                <g id="Group-9" transform="translate(194.000000, 0.000000)">
                    <g id="transmision-en-vivo" transform="translate(11.000000, 6.000000)">
                        <path d="M11.9898098,9.16686483 C11.1615998,9.99329146 9.81929348,9.99329146 8.99108354,9.16686483 C8.16312841,8.3404382 8.16312841,7.00042461 8.99108354,6.17399798 C9.81929348,5.34757135 11.1615998,5.34757135 11.9898098,6.17399798 C12.8177649,7.00042461 12.8177649,8.3404382 11.9898098,9.16686483 Z" id="Path"></path>
                        <path d="M14.886379,12.3734714 C14.6280571,12.3734714 14.3697351,12.2748811 14.1730638,12.0774457 C13.7797214,11.6835938 13.7804857,11.0454314 14.1743377,10.6523438 C14.9724864,9.85572352 15.4119395,8.79670513 15.4119395,7.67043137 C15.4119395,6.54415761 14.9724864,5.48513928 14.1743377,4.68851902 C13.7804857,4.29517663 13.7797214,3.65726902 14.1730638,3.26316235 C14.5661515,2.86931048 15.2043138,2.8685462 15.5981658,3.26188859 C16.7779382,4.43936817 17.4275645,6.00484037 17.4275645,7.67043137 C17.4275645,9.3357677 16.7779382,10.9014946 15.5981658,12.0789742 C15.4014946,12.2753906 15.1439368,12.3734714 14.886379,12.3734714 Z" id="Path"></path>
                        <path d="M17.1659307,15.340608 C16.9076087,15.340608 16.6492867,15.2420177 16.4526155,15.044837 C16.0592731,14.6507303 16.0600373,14.0128227 16.4538893,13.6194803 C18.0461107,12.0303159 18.9232337,9.91762904 18.9232337,7.67043137 C18.9232337,5.4232337 18.0461107,3.31054689 16.4538893,1.72138246 C16.0600373,1.32804007 16.0592731,0.690132457 16.4526155,0.296025783 C16.8459579,-0.097826087 17.4838655,-0.0985903696 17.8777174,0.294752022 C19.8515625,2.26477578 20.9388587,4.8841712 20.938604,7.67043137 C20.938604,10.4566916 19.8515625,13.0763417 17.8777174,15.0463655 C17.6810462,15.2425272 17.4234884,15.340608 17.1659307,15.340608 Z" id="Path"></path>
                        <path d="M6.08941917,12.3734714 C5.83186141,12.3734714 5.57430365,12.2753906 5.37737772,12.0789742 C4.19760528,10.9014946 3.54797896,9.3357677 3.54797896,7.67043137 C3.54797896,6.00484037 4.19760528,4.43936817 5.37737772,3.26188859 C5.77122965,2.8685462 6.409392,2.86905574 6.80247965,3.26316235 C7.19582204,3.65701428 7.19505776,4.29517663 6.80120583,4.68851902 C6.00305707,5.48513928 5.56360396,6.54415761 5.56360396,7.67043137 C5.56360396,8.79670513 6.00305707,9.85572352 6.80120583,10.6523438 C7.19505776,11.0454314 7.19582204,11.6835938 6.80247965,12.0774457 C6.60580839,12.2746264 6.34748641,12.3734714 6.08941917,12.3734714 Z" id="Path"></path>
                        <path d="M3.80986754,15.340608 C3.55205504,15.340608 3.29449728,15.2425272 3.09782609,15.0461107 C1.12398098,13.076087 0.0369395217,10.4566916 0.0369395217,7.67043137 C0.0369395217,4.88391646 1.12398098,2.26452104 3.09782609,0.294497283 C3.49167796,-0.0985903696 4.12984037,-0.0980808261 4.52292796,0.296025783 C4.91627035,0.689877717 4.91550613,1.32778533 4.5216542,1.72112772 C2.92943276,3.31029209 2.05230978,5.42297896 2.05230978,7.67017663 C2.05230978,9.9173743 2.92943276,12.0303159 4.5216542,13.6194803 C4.91550613,14.0128227 4.91627035,14.6507303 4.52292796,15.044837 C4.32625683,15.2420177 4.06793478,15.340608 3.80986754,15.340608 Z" id="Path"></path>
                    </g>
                </g>
            </g>
        </g>
    </g>
</svg>