<?xml version="1.0" encoding="UTF-8"?>
<svg width="17px" height="22px" viewBox="0 0 17 22" version="1.1" xmlns="http://www.w3.org/2000/svg" xmlns:xlink="http://www.w3.org/1999/xlink">
    <title>lock</title>
    <defs>
        <filter id="filter-1">
            <feColorMatrix in="SourceGraphic" type="matrix" values="0 0 0 0 0.349020 0 0 0 0 0.349020 0 0 0 0 0.349020 0 0 0 1.000000 0"></feColorMatrix>
        </filter>
    </defs>
    <g id="HOME" stroke="none" stroke-width="1" fill="none" fill-rule="evenodd">
        <g id="Mobile" transform="translate(-249.000000, -770.000000)">
            <g id="Group-15" transform="translate(10.000000, 562.000000)">
                <g id="lock" transform="translate(239.100000, 208.000000)" filter="url(#filter-1)">
                    <g fill="#000000" fill-rule="nonzero">
                        <path d="M14.9565217,8.66666667 L13.9130435,8.66666667 L13.9130435,5.6666 C13.9130435,2.542 11.2604522,0 8,0 C4.73954783,0 2.08695652,2.542 2.08695652,5.6666 L2.08695652,8.66666667 L1.04347826,8.66666667 C0.4672,8.66666667 0,9.1144 0,9.66666667 L0,21 C0,21.5522667 0.4672,22 1.04347826,22 L14.9565217,22 C15.5328,22 16,21.5522667 16,21 L16,9.66666667 C16,9.1144 15.5328,8.66666667 14.9565217,8.66666667 Z M4.17391304,5.6666 C4.17391304,3.64486667 5.89029565,2 8,2 C10.1097043,2 11.826087,3.64486667 11.826087,5.6666 L11.826087,8.66666667 L4.17391304,8.66666667 L4.17391304,5.6666 Z M13.9130435,20 L2.08695652,20 L2.08695652,10.6666667 L3.13043478,10.6666667 L12.8695652,10.6666667 L13.9130435,10.6666667 L13.9130435,20 Z" id="XMLID_836_"></path>
                        <path d="M8,12.6666667 C7.04104348,12.6666667 6.26086957,13.4143333 6.26086957,14.3333333 C6.26086957,14.8774667 6.5344,15.3614 6.95652174,15.6657333 L6.95652174,17 C6.95652174,17.5522667 7.42372174,18 8,18 C8.57627826,18 9.04347826,17.5522667 9.04347826,17 L9.04347826,15.6657333 C9.4656,15.3614 9.73913043,14.8774 9.73913043,14.3333333 C9.73913043,13.4143333 8.95895652,12.6666667 8,12.6666667 Z" id="XMLID_840_"></path>
                    </g>
                </g>
            </g>
        </g>
    </g>
</svg>