<?xml version="1.0" encoding="UTF-8"?>
<svg width="30px" height="30px" viewBox="0 0 30 30" version="1.1" xmlns="http://www.w3.org/2000/svg" xmlns:xlink="http://www.w3.org/1999/xlink">
    <title>Group 2</title>
    <defs>
        <filter id="filter-1">
            <feColorMatrix in="SourceGraphic" type="matrix" values="0 0 0 0 0.062745 0 0 0 0 0.133333 0 0 0 0 0.203922 0 0 0 1.000000 0"></feColorMatrix>
        </filter>
    </defs>
    <g id="Components" stroke="none" stroke-width="1" fill="none" fill-rule="evenodd">
        <g id="Header-Top-User" transform="translate(-5.000000, -9.000000)">
            <g id="Group-2" transform="translate(5.000000, 9.000000)">
                <circle id="Oval" fill="#FFA800" cx="15" cy="15" r="15"></circle>
                <g id="user-(4)" transform="translate(5.000000, 5.000000)" filter="url(#filter-1)">
                    <g fill="#000000" fill-rule="nonzero" stroke="#979797" stroke-width="0.5">
                        <path d="M10.006558,10.0125681 C4.49637475,10.0125681 0.0133604888,14.2950195 0.0133604888,19.5585992 C0.0133604888,19.7877043 0.20802444,19.9736576 0.447861507,19.9736576 C0.687698574,19.9736576 0.882362525,19.7877043 0.882362525,19.5585992 C0.882362525,14.7523735 4.97523422,10.8426459 10.0065988,10.8426459 C15.0379633,10.8426459 19.130835,14.7523735 19.130835,19.5585992 C19.130835,19.7877043 19.325499,19.9736576 19.565336,19.9736576 C19.8051731,19.9736576 19.9998371,19.7877043 19.9998371,19.5585992 C19.9998371,14.2941634 15.5167413,10.0125681 10.006558,10.0125681 Z" id="Path"></path>
                        <path d="M10.006558,0 C7.37181263,0 5.22720978,2.04782101 5.22720978,4.56548638 C5.22720978,7.08315175 7.37185336,9.13097276 10.006558,9.13097276 C12.6412627,9.13097276 14.7859063,7.08315175 14.7859063,4.56548638 C14.7859063,2.04782101 12.6413035,0 10.006558,0 Z M10.006558,8.30089494 C7.85063136,8.30089494 6.09617108,6.62494163 6.09617108,4.56548638 C6.09617108,2.50603113 7.85063136,0.830077821 10.006558,0.830077821 C12.1624847,0.830077821 13.916945,2.50603113 13.916945,4.56548638 C13.916945,6.62494163 12.1624847,8.30089494 10.006558,8.30089494 Z" id="Shape"></path>
                    </g>
                </g>
            </g>
        </g>
    </g>
</svg>