<?xml version="1.0" encoding="UTF-8"?>
<svg width="16px" height="21px" viewBox="0 0 16 21" version="1.1" xmlns="http://www.w3.org/2000/svg" xmlns:xlink="http://www.w3.org/1999/xlink">
    <title>poker</title>
    <g id="HOME" stroke="none" stroke-width="1" fill="none" fill-rule="evenodd">
        <g id="Desktop-1280" transform="translate(-40.000000, -83.000000)" fill="#FFFFFF" fill-rule="nonzero">
            <g id="Header" transform="translate(-180.000000, -81.000000)">
                <g id="Group-25" transform="translate(180.000000, 81.000000)">
                    <g id="Group-8" transform="translate(40.000000, 74.000000)">
                        <g id="Group-6" transform="translate(0.000000, 7.000000)">
                            <g id="poker" transform="translate(0.000000, 2.000000)">
                                <path d="M11.2731445,7.55454492 C10.7117637,6.99320508 9.96544336,6.6840293 9.17154492,6.6840293 C8.60233008,6.6840293 8.05760156,6.84296484 7.58789062,7.13983594 C7.11826172,6.84296484 6.57349219,6.6840293 6.00427734,6.6840293 C5.21037891,6.6840293 4.46401758,6.99316406 3.90267773,7.55454492 C3.34133789,8.11588477 3.03216211,8.86224609 3.03216211,9.65614453 C3.03216211,10.450043 3.34129688,11.1963633 3.90267773,11.7577441 L7.58789062,15.442957 L11.2731445,11.7577441 C12.431918,10.5988887 12.431918,8.71335937 11.2731445,7.55454492 Z M10.2371719,10.7217715 L7.58789062,13.3709707 L4.93865039,10.7217305 C4.65404297,10.437041 4.49724023,10.0586309 4.49724023,9.65610352 C4.49724023,9.25357617 4.65400195,8.87516602 4.93869141,8.59047656 C5.22329883,8.30586914 5.60175,8.14906641 6.00427734,8.14906641 C6.4068457,8.14906641 6.78529687,8.30586914 7.06986328,8.59047656 L7.58789062,9.10850391 L8.10587695,8.59051758 C8.39056641,8.30582812 8.76897656,8.14906641 9.17154492,8.14906641 C9.57407227,8.14906641 9.95248242,8.30582812 10.2371719,8.59047656 C10.8247207,9.17810742 10.8247207,10.1342227 10.2371719,10.7217715 Z" id="Shape"></path>
                                <path d="M12.9599941,0 L2.21578711,0 C1.00398047,0 0.0181289063,0.985892578 0.0181289063,2.1976582 L0.0181289063,18.8023008 C0.0181289063,20.0141074 1.00402148,20.999959 2.21578711,20.999959 L12.9599531,20.999959 C14.1717598,20.999959 15.1576113,20.0141484 15.1576113,18.8023008 L15.1576113,2.1976582 C15.1576113,0.985892578 14.1717598,0 12.9599941,0 Z M13.6925332,18.8023418 C13.6925332,19.2062637 13.363916,19.5348809 12.9599941,19.5348809 L2.21578711,19.5348809 C1.81186523,19.5348809 1.48324805,19.2062637 1.48324805,18.8023418 L1.48324805,2.1976582 C1.48324805,1.79373633 1.81186523,1.46511914 2.21578711,1.46511914 L12.9599531,1.46511914 C13.363875,1.46511914 13.6925332,1.79373633 13.6925332,2.1976582 L13.6925332,18.8023418 L13.6925332,18.8023418 Z" id="Shape"></path>
                                <path d="M3.9251543,2.93023828 C3.38657813,2.93023828 2.9484082,3.3684082 2.9484082,3.90698437 C2.9484082,4.44535547 3.38649609,4.88352539 3.9249082,4.88373047 L3.9251543,4.88373047 C4.18605469,4.88373047 4.43128711,4.78213477 4.61581641,4.59772852 C4.80046875,4.41307617 4.90210547,4.16755664 4.9019007,3.90698437 C4.9019007,3.3684082 4.46373047,2.93023828 3.9251543,2.93023828 Z" id="Path"></path>
                                <path d="M11.250709,16.1162695 C10.7121328,16.1162695 10.2739629,16.5544395 10.2739629,17.0930156 C10.2739629,17.6313867 10.7120508,18.0695566 11.2504629,18.0697617 L11.250709,18.0697617 C11.5116094,18.0697617 11.7568418,17.968166 11.9413711,17.7837598 C12.1260234,17.5991074 12.2276602,17.3535879 12.2274554,17.0930156 C12.2274554,16.5544395 11.7892852,16.1162695 11.250709,16.1162695 Z" id="Path"></path>
                            </g>
                        </g>
                    </g>
                </g>
            </g>
        </g>
    </g>
</svg>