<?xml version="1.0" encoding="UTF-8"?>
<svg width="14px" height="13px" viewBox="0 0 14 13" version="1.1" xmlns="http://www.w3.org/2000/svg" xmlns:xlink="http://www.w3.org/1999/xlink">
    <title>Path</title>
    <g id="Components" stroke="none" stroke-width="1" fill="none" fill-rule="evenodd">
        <g id="stars-4" transform="translate(-68.000000, 0.000000)" fill="#85909A" fill-rule="nonzero">
            <path d="M81.7676657,5.53776185 L78.1205623,8.11413681 L79.5137987,12.2829299 C79.5891907,12.5086509 79.5063479,12.7557682 79.309249,12.895474 C79.2101471,12.9651887 79.0942492,13 78.9778147,13 C78.8615696,13 78.7453245,12.965158 78.6469803,12.895474 L75.0000663,10.3189148 L71.3533418,12.8951056 C71.1555168,13.034842 70.8882035,13.034842 70.6907889,12.8951056 C70.4938163,12.7557682 70.4108788,12.5086202 70.4863655,12.2829299 L71.8792231,8.11395263 L68.2324986,5.53776185 C68.0350524,5.39824031 67.9521149,5.15118435 68.0276016,4.92540196 C68.1032777,4.69965028 68.3198245,4.54689799 68.5636487,4.54689799 L73.0713826,4.54689799 L74.4642402,0.378411884 C74.5397269,0.152690899 74.7561158,0 75.0002873,0 C75.2444589,0 75.4604689,0.152690899 75.5358609,0.378411884 L76.9287185,4.54689799 L81.4368312,4.54689799 C81.6805608,4.54689799 81.8970128,4.69968098 81.9727837,4.92540196 C82.0476074,5.15118435 81.9645751,5.39824031 81.7676657,5.53776185 Z" id="Path"></path>
        </g>
    </g>
</svg>