<?xml version="1.0" encoding="UTF-8"?>
<svg width="8px" height="15px" viewBox="0 0 8 15" version="1.1" xmlns="http://www.w3.org/2000/svg" xmlns:xlink="http://www.w3.org/1999/xlink">
    <title>Path</title>
    <g id="Components" stroke="none" stroke-width="1" fill="none" fill-rule="evenodd">
        <g id="Header-/-Loged-expanded" transform="translate(-1217.000000, -136.000000)" fill="#333333" fill-rule="nonzero">
            <g id="Group" transform="translate(913.000000, 18.000000)">
                <g id="Group-9" transform="translate(15.000000, 117.000000)">
                    <path d="M296.804721,8.01769334 L290.138045,1.19970195 C289.877739,0.933422917 289.455585,0.933422917 289.195251,1.19976055 C288.934945,1.46603958 288.934945,1.89772862 289.195308,2.16397836 L295.390558,8.49989014 L289.195222,14.8360949 C288.934916,15.1023739 288.934916,15.534063 289.195279,15.8003127 C289.325418,15.9334376 289.496033,16 289.666648,16 C289.837263,16 290.007906,15.9334669 290.138073,15.8002834 L296.804721,8.98194045 C296.929789,8.85408901 297,8.68068098 297,8.49986084 C297,8.31901141 296.929789,8.14557408 296.804721,8.01769334 Z" id="Path"></path>
                </g>
            </g>
        </g>
    </g>
</svg>