<?xml version="1.0" encoding="UTF-8"?>
<svg width="14px" height="8px" viewBox="0 0 14 8" version="1.1" xmlns="http://www.w3.org/2000/svg" xmlns:xlink="http://www.w3.org/1999/xlink">
    <title>up-green-chevron</title>
    <g id="HOME" stroke="none" stroke-width="1" fill="none" fill-rule="evenodd">
        <g id="Mobile" transform="translate(-28.000000, -1028.000000)" fill="#377E14" fill-rule="nonzero" stroke="#377E14">
            <g id="Group-15-Copy" transform="translate(10.000000, 823.000000)">
                <g id="Path" transform="translate(19.000000, 206.000000)">
                    <path d="M8.85354063,2.61415467 L3.85353347,-2.84023844 C3.65830445,-3.05326167 3.34168839,-3.05326167 3.14643788,-2.84019156 C2.95120886,-2.62716833 2.95120886,-2.28181711 3.14648085,-2.06881732 L7.79291873,2.99991211 L3.1464164,8.06887591 C2.95118737,8.28189914 2.95118737,8.62725036 3.14645937,8.84025016 C3.24406314,8.94675005 3.37202441,9 3.49998568,9 C3.62794695,9 3.7559297,8.94677349 3.85355496,8.84022672 L8.85354063,3.38555236 C8.94734166,3.28327121 9,3.14454478 9,2.99988867 C9,2.85520913 8.94734166,2.71645926 8.85354063,2.61415467 Z" transform="translate(6.000000, 3.000000) rotate(-90.000000) translate(-6.000000, -3.000000) "></path>
                </g>
            </g>
        </g>
    </g>
</svg>