<?xml version="1.0" encoding="UTF-8"?>
<svg width="25px" height="15px" viewBox="0 0 25 15" version="1.1" xmlns="http://www.w3.org/2000/svg" xmlns:xlink="http://www.w3.org/1999/xlink">
    <title>visibility ON</title>
    <defs>
        <filter id="filter-1">
            <feColorMatrix in="SourceGraphic" type="matrix" values="0 0 0 0 1.000000 0 0 0 0 1.000000 0 0 0 0 1.000000 0 0 0 1.000000 0"></feColorMatrix>
        </filter>
    </defs>
    <g id="MY-ACCOUNT" stroke="none" stroke-width="1" fill="none" fill-rule="evenodd">
        <g id="Password" transform="translate(-838.000000, -243.000000)">
            <g id="Info" transform="translate(443.000000, 158.000000)">
                <g id="Field" transform="translate(35.000000, 61.000000)">
                    <g id="visibility-ON" transform="translate(360.000000, 24.000000)" filter="url(#filter-1)">
                        <g id="visibility-(1)" fill="#000000" fill-rule="nonzero">
                            <path d="M24.7575891,6.98600479 C24.5618953,6.70124902 19.8590328,0.0321302734 12.4247573,0.0321302734 C6.04553906,0.0321302734 0.361101562,6.66295479 0.121920312,6.94562354 C-0.0406239258,7.13821104 -0.0406239258,7.42087979 0.121920312,7.61448652 C0.361101562,7.89715527 6.04553906,14.5279798 12.4247573,14.5279798 C18.8039756,14.5279798 24.4883646,7.89715527 24.7275458,7.61448652 C24.8777136,7.43641104 24.8911578,7.17859229 24.7575891,6.98600479 Z M12.4247573,13.4925793 C7.31085059,13.4925793 2.44850156,8.6157668 1.21328184,7.2800793 C2.44646309,5.94337256 7.30361885,1.0675793 12.4247573,1.0675793 C18.4084141,1.0675793 22.6318948,5.93716006 23.6631698,7.25212305 C22.4724083,8.54534229 17.5821516,13.4925793 12.4247573,13.4925793 Z" id="Shape"></path>
                            <path d="M12.4247573,3.13838027 C10.1406443,3.13838027 8.28310684,4.99591777 8.28310684,7.28003076 C8.28310684,9.56414375 10.1406443,11.4216813 12.4247573,11.4216813 C14.7088703,11.4216813 16.5664078,9.56414375 16.5664078,7.28003076 C16.5664078,4.99591777 14.7088703,3.13838027 12.4247573,3.13838027 Z M12.4247573,10.3863293 C10.7121943,10.3863293 9.31850732,8.99264229 9.31850732,7.2800793 C9.31850732,5.56751631 10.7121943,4.1738293 12.4247573,4.1738293 C14.1373203,4.1738293 15.5310073,5.56751631 15.5310073,7.2800793 C15.5310073,8.99264229 14.1373203,10.3863293 12.4247573,10.3863293 Z" id="Shape"></path>
                        </g>
                    </g>
                </g>
            </g>
        </g>
    </g>
</svg>