<?xml version="1.0" encoding="UTF-8"?>
<svg width="25px" height="19px" viewBox="0 0 25 19" version="1.1" xmlns="http://www.w3.org/2000/svg" xmlns:xlink="http://www.w3.org/1999/xlink">
    <title>visibility ON Copy</title>
    <defs>
        <filter id="filter-1">
            <feColorMatrix in="SourceGraphic" type="matrix" values="0 0 0 0 1.000000 0 0 0 0 1.000000 0 0 0 0 1.000000 0 0 0 1.000000 0"></feColorMatrix>
        </filter>
    </defs>
    <g id="MY-ACCOUNT" stroke="none" stroke-width="1" fill="none" fill-rule="evenodd">
        <g id="Password" transform="translate(-838.000000, -343.000000)">
            <g id="Info" transform="translate(443.000000, 158.000000)">
                <g id="Field-Copy" transform="translate(35.000000, 163.000000)">
                    <g id="visibility-ON-Copy" transform="translate(360.000000, 22.000000)" filter="url(#filter-1)">
                        <g id="visibility" fill="#000000" fill-rule="nonzero">
                            <path d="M15.3532232,6.36366333 C15.1513169,6.16259667 14.8230737,6.16259667 14.6211674,6.36366333 C14.4192612,6.56473 14.4192612,6.89262333 14.6211674,7.092675 C15.2072294,7.6763 15.5312987,8.45272667 15.5312987,9.27966167 C15.5312987,10.9851033 14.1376116,12.372995 12.4250486,12.372995 C11.5946606,12.372995 10.8149919,12.0512883 10.2289299,11.4666483 C10.0270236,11.2655817 9.69878036,11.2655817 9.4968741,11.4666483 C9.29496785,11.6667 9.29496785,11.9945933 9.4968741,12.19566 C10.2775621,12.97518 11.3181559,13.4041383 12.4250486,13.4041383 C14.7091616,13.4041383 16.5666992,11.554325 16.5666992,9.27971 C16.5666992,8.17737167 16.1359982,7.141105 15.3532232,6.36366333 Z" id="Path"></path>
                            <path d="M13.1467179,5.22633167 C12.9116621,5.18510333 12.6714616,5.155185 12.4250486,5.155185 C10.1409356,5.155185 8.28339812,7.00499833 8.28339812,9.27961333 C8.28339812,9.52500167 8.31344138,9.76425167 8.35586111,9.99828167 C8.40036785,10.2478267 8.61887312,10.4241467 8.86426687,10.4241467 C8.89431013,10.4241467 8.92430486,10.4220683 8.95536736,10.4158817 C9.2359491,10.3663883 9.42441112,10.0982833 9.37471112,9.81886833 C9.34262938,9.64356333 9.31879862,9.46521333 9.31879862,9.27961333 C9.31879862,7.57417167 10.7124856,6.18628 12.4250486,6.18628 C12.6114236,6.18628 12.7905669,6.21001167 12.9665554,6.240945 C13.2419924,6.296625 13.5163616,6.10276 13.5660616,5.823345 C13.6157616,5.54393 13.4273482,5.275825 13.1467179,5.22633167 Z" id="Path"></path>
                            <path d="M24.726818,8.94659667 C24.6097997,8.80841167 21.80903,5.55321 17.9458742,3.56008833 C17.6952872,3.42915333 17.3795174,3.52814 17.2479872,3.78179333 C17.1165054,4.03443167 17.2159054,4.345795 17.4706179,4.47677833 C20.4464054,6.01107167 22.823706,8.40531167 23.6365242,9.27971 C22.4023237,10.6108583 17.5451679,15.4663767 12.4250486,15.4663767 C10.6876356,15.4663767 8.93672986,15.0487767 7.2189736,14.2238717 C6.96426109,14.0991233 6.65261685,14.20739 6.52836685,14.4641367 C6.40309761,14.7198683 6.51181636,15.0281383 6.76963512,15.1518717 C8.62819187,16.045845 10.5313039,16.4974717 12.4250972,16.4974717 C18.8043155,16.4974717 24.488753,9.89422 24.7279343,9.61272667 C24.8914492,9.42089167 24.89043,9.13939833 24.726818,8.94659667 Z" id="Path"></path>
                            <path d="M15.8222669,2.65577167 C14.6439789,2.26084 13.5008789,2.06185167 12.4250486,2.06185167 C6.04583033,2.06185167 0.361392777,8.66510333 0.122211524,8.94659667 C-0.0289754885,9.12393167 -0.0414004886,9.38174167 0.093236036,9.57454333 C0.164679787,9.67662333 1.87622355,12.096625 4.84269233,14.0588617 C4.93068657,14.117635 5.02906733,14.145475 5.12846733,14.145475 C5.29518559,14.145475 5.45981684,14.0650483 5.55921684,13.913475 C5.7176356,13.6773667 5.65240435,13.356675 5.41424233,13.19993 C3.23574182,11.7574217 1.74474181,10.015875 1.18663605,9.30750167 C2.37841682,8.01859667 7.26765436,3.092995 12.4250486,3.092995 C13.3890054,3.092995 14.4213482,3.27448667 15.4919367,3.63225 C15.7631996,3.72915833 16.0572742,3.57966333 16.1473554,3.308465 C16.2385044,3.03833 16.0935299,2.74654167 15.8222669,2.65577167 Z" id="Path"></path>
                            <path d="M21.5915925,0.151186667 C21.3896862,-0.04988 21.061443,-0.04988 20.8595367,0.151186667 L3.25748557,17.6800917 C3.05557932,17.8811583 3.05557932,18.2080367 3.25748557,18.4091033 C3.35897259,18.509105 3.49147357,18.5596617 3.62402308,18.5596617 C3.75657259,18.5596617 3.88907357,18.5091533 3.98954134,18.4091033 L21.5915925,0.880198333 C21.7934987,0.679131667 21.7934987,0.352253333 21.5915925,0.151186667 Z" id="Path"></path>
                        </g>
                    </g>
                </g>
            </g>
        </g>
    </g>
</svg>