<?xml version="1.0" encoding="UTF-8"?>
<svg width="21px" height="21px" viewBox="0 0 21 21" version="1.1" xmlns="http://www.w3.org/2000/svg" xmlns:xlink="http://www.w3.org/1999/xlink">
    <title>volleyball</title>
    <g id="HOME" stroke="none" stroke-width="1" fill="none" fill-rule="evenodd">
        <g id="Desktop-1280" transform="translate(-859.000000, -83.000000)" fill="#FFFFFF" fill-rule="nonzero">
            <g id="Header" transform="translate(-180.000000, -81.000000)">
                <g id="Group-25" transform="translate(180.000000, 81.000000)">
                    <g id="Group-8" transform="translate(40.000000, 74.000000)">
                        <g id="Group-4" transform="translate(819.000000, 7.000000)">
                            <g id="volleyball" transform="translate(0.000000, 2.000000)">
                                <path d="M10.4589844,0 C4.67861133,0 0,4.67783203 0,10.4589844 C0,16.2190137 4.65904687,21 10.4589844,21 C16.2345996,21 21,16.2378809 21,10.4589844 C21,4.65416602 16.2133945,0 10.4589844,0 Z M18.4518633,5.73111328 C19.107293,6.81564844 19.5443555,8.04382031 19.7027578,9.35582813 C17.8004531,12.7979824 13.9685273,15.0681562 9.84407812,14.8293223 C9.84748242,13.6329375 10.1843437,12.3626836 10.8457617,11.0489531 C14.119752,10.7655352 16.7800254,8.89875 18.4518633,5.73111328 Z M10.4589844,1.23046875 C13.3477148,1.23046875 15.9333398,2.54120508 17.6424199,4.59416016 C17.0183262,5.94131836 16.0603652,7.3940918 14.6091094,8.43129492 C14.0083535,5.40159375 12.0571582,2.7825 9.35668945,1.29654492 C9.71824219,1.25331445 10.0859883,1.23046875 10.4589844,1.23046875 Z M7.38658594,1.75698633 C10.6150488,2.89865625 12.9801328,5.74825781 13.476668,9.0990293 C12.720873,9.4586543 11.8595039,9.71081836 10.8787383,9.80991211 C9.81516211,7.12605469 7.26296484,5.10685547 3.73496484,4.14520313 C4.73459766,3.08125781 5.98307227,2.25401367 7.38658594,1.75698633 Z M1.23046875,10.4589844 C1.23046875,8.50528711 1.84123242,6.69186328 2.88110156,5.19844336 C4.62159961,5.60466211 6.11399414,6.27555469 7.28790234,7.15866211 C4.45536328,9.4927793 3.09942773,13.3597324 3.93483398,17.0377266 C2.26475977,15.3519844 1.23046875,13.0250449 1.23046875,10.4589844 Z M5.70236133,18.4346777 C4.01973633,14.7712031 5.14774805,10.3944258 8.22875977,7.9807793 C8.93057812,8.69613281 9.45967969,9.51176953 9.79055273,10.4085762 C9.00916406,11.9325527 8.61328125,13.4247832 8.61328125,14.8476562 C8.61328125,16.592502 9.06211523,18.267334 9.91999805,19.753248 C8.38404492,19.6635469 6.94763672,19.1934668 5.70236133,18.4346777 Z M11.3574316,19.7260137 C10.5974121,18.6237187 10.1130586,17.3794688 9.92844727,16.0652461 C13.8481465,16.240957 17.4375879,14.4238008 19.7034551,11.5661191 C19.1892422,15.8860898 15.7057441,19.3076953 11.3574316,19.7260137 Z" id="Shape"></path>
                            </g>
                        </g>
                    </g>
                </g>
            </g>
        </g>
    </g>
</svg>