<?xml version="1.0" encoding="UTF-8"?>
<svg width="15px" height="13px" viewBox="0 0 15 13" version="1.1" xmlns="http://www.w3.org/2000/svg" xmlns:xlink="http://www.w3.org/1999/xlink">
    <title>warning-sign</title>
    <defs>
        <filter id="filter-1">
            <feColorMatrix in="SourceGraphic" type="matrix" values="0 0 0 0 1.000000 0 0 0 0 0.815686 0 0 0 0 0.462745 0 0 0 1.000000 0"></feColorMatrix>
        </filter>
    </defs>
    <g id="MY-ACCOUNT" stroke="none" stroke-width="1" fill="none" fill-rule="evenodd">
        <g id="Retiro-3" transform="translate(-233.000000, -538.000000)">
            <g id="Group-Copy-2" transform="translate(15.000000, 463.000000)">
                <g id="warning-sign" transform="translate(218.000000, 75.000000)" filter="url(#filter-1)">
                    <g fill="#333333" fill-rule="nonzero">
                        <path d="M14.8610156,11.4785705 L8.38760742,0.519856828 C7.99303711,-0.148154185 7.00708008,-0.148411894 6.61233398,0.519856828 L0.138925781,11.4785705 C-0.255556641,12.1463238 0.236865234,12.9812445 1.0265625,12.9812445 L13.9733789,12.9812445 C14.7622852,12.9812445 15.2558789,12.1469824 14.8610156,11.4785705 Z M13.9733789,12.1225573 L1.0265625,12.1225573 C0.913945312,12.1225573 0.842958984,12.0040396 0.899765625,11.9078855 L7.37317383,0.949200441 C7.42951172,0.853848018 7.56999023,0.853046256 7.62679687,0.949200441 L14.1002051,11.9079141 C14.1566309,12.003467 14.0867578,12.1225573 13.9733789,12.1225573 Z" id="Shape"></path>
                        <ellipse id="Oval" transform="translate(7.505696, 10.443856) rotate(-31.720060) translate(-7.505696, -10.443856) " cx="7.50569569" cy="10.4438561" rx="1" ry="1"></ellipse>
                        <path d="M7.50568359,9.16952423 C7.74829102,9.16952423 7.94496094,8.97730176 7.94496094,8.74018062 L7.94496094,3.83265198 C7.94496094,3.59553084 7.74829102,3.40330837 7.50568359,3.40330837 C7.26307617,3.40330837 7.06640625,3.59553084 7.06640625,3.83265198 L7.06640625,8.74018062 C7.06640625,8.97730176 7.26307617,9.16952423 7.50568359,9.16952423 L7.50568359,9.16952423 Z" id="Path"></path>
                    </g>
                </g>
            </g>
        </g>
    </g>
</svg>