<?xml version="1.0" encoding="UTF-8"?>
<svg width="50px" height="50px" viewBox="0 0 50 50" version="1.1" xmlns="http://www.w3.org/2000/svg" xmlns:xlink="http://www.w3.org/1999/xlink">
    <title>whatsapp (3)</title>
    <g id="MY-ACCOUNT" stroke="none" stroke-width="1" fill="none" fill-rule="evenodd">
        <g id="Referidos" transform="translate(-463.000000, -391.000000)" fill-rule="nonzero">
            <g id="Path" transform="translate(463.000000, 391.000000)">
                <path d="M25.00625,0 L24.99375,0 L24.99375,0 C11.209375,0 0,11.2125 0,25 C0,30.46875 1.7625,35.5375 4.759375,39.653125 L1.64375,48.940625 L11.253125,45.86875 C15.20625,48.4875 19.921875,50 25.00625,50 C38.790625,50 50,38.784375 50,25 C50,11.215625 38.790625,0 25.00625,0 Z" fill="#4CAF50"></path>
                <path d="M39.553125,35.303125 C38.95,37.00625 36.55625,38.41875 34.646875,38.83125 C33.340625,39.109375 31.634375,39.33125 25.890625,36.95 C18.54375,33.90625 13.8125,26.440625 13.44375,25.95625 C13.090625,25.471875 10.475,22.003125 10.475,18.415625 C10.475,14.828125 12.296875,13.08125 13.03125,12.33125 C13.634375,11.715625 14.63125,11.434375 15.5875,11.434375 C15.896875,11.434375 16.175,11.45 16.425,11.4625 C17.159375,11.49375 17.528125,11.5375 18.0125,12.696875 C18.615625,14.15 20.084375,17.7375 20.259375,18.10625 C20.4375,18.475 20.615625,18.975 20.365625,19.459375 C20.13125,19.959375 19.925,20.18125 19.55625,20.60625 C19.1875,21.03125 18.8375,21.35625 18.46875,21.8125 C18.13125,22.209375 17.75,22.634375 18.175,23.36875 C18.6,24.0875 20.06875,26.484375 22.23125,28.409375 C25.021875,30.89375 27.284375,31.6875 28.09375,32.025 C28.696875,32.275 29.415625,32.215625 29.85625,31.746875 C30.415625,31.14375 31.10625,30.14375 31.809375,29.159375 C32.309375,28.453125 32.940625,28.365625 33.603125,28.615625 C34.278125,28.85 37.85,30.615625 38.584375,30.98125 C39.31875,31.35 39.803125,31.525 39.98125,31.834375 C40.15625,32.14375 40.15625,33.596875 39.553125,35.303125 Z" fill="#FAFAFA"></path>
            </g>
        </g>
    </g>
</svg>