<svg xmlns="http://www.w3.org/2000/svg" width="13.893" height="10.419" viewBox="0 0 13.893 10.419">
  <path id="Icon_awesome-hand-point-right" data-name="Icon awesome-hand-point-right" d="M0,8.181A1.224,1.224,0,0,0,1.216,9.37H3.925A1.335,1.335,0,0,0,4.1,11.295a1.243,1.243,0,0,0,.446,1.691c-.244,1.333.6,1.934,1.97,1.934.075,0,.36-.006.434-.005,1.682,0,2.086-.843,3.357-1.04a.65.65,0,0,0,.55-.643V8.577h0a1.3,1.3,0,0,0-.772-1.19c-.784-.353-2.589-1.331-2.918-2.1A1.157,1.157,0,0,0,6.078,4.5a1.3,1.3,0,0,0-1.2,1.815,3.688,3.688,0,0,0,.384.676H1.216A1.243,1.243,0,0,0,0,8.181Zm11.288.009V13.4a.651.651,0,0,0,.651.651h1.3a.651.651,0,0,0,.651-.651V8.19a.651.651,0,0,0-.651-.651h-1.3A.651.651,0,0,0,11.288,8.19Zm.76,4.559a.543.543,0,1,1,.543.543A.543.543,0,0,1,12.047,12.749Z" transform="translate(0 -4.5)" fill="#fca81c"/>
</svg>
