<svg xmlns="http://www.w3.org/2000/svg" width="13.893" height="10.419" viewBox="0 0 13.893 10.419">
  <path id="Icon_awesome-hand-point-right" data-name="Icon awesome-hand-point-right" d="M13.893,8.181A1.224,1.224,0,0,1,12.677,9.37H9.968A1.335,1.335,0,0,1,9.8,11.295a1.243,1.243,0,0,1-.446,1.691c.244,1.333-.6,1.934-1.97,1.934-.075,0-.36-.006-.434-.005-1.682,0-2.086-.843-3.357-1.04a.65.65,0,0,1-.55-.643V8.577h0a1.3,1.3,0,0,1,.772-1.19C4.6,7.035,6.4,6.057,6.729,5.289A1.157,1.157,0,0,1,7.815,4.5a1.3,1.3,0,0,1,1.2,1.815,3.688,3.688,0,0,1-.384.676h4.049A1.243,1.243,0,0,1,13.893,8.181ZM2.6,8.19V13.4a.651.651,0,0,1-.651.651H.651A.651.651,0,0,1,0,13.4V8.19a.651.651,0,0,1,.651-.651h1.3A.651.651,0,0,1,2.6,8.19Zm-.76,4.559a.543.543,0,1,0-.543.543A.543.543,0,0,0,1.845,12.749Z" transform="translate(0 -4.5)" fill="#fca81c"/>
</svg>
